<?xml version="1.0" standalone="no"?>
<!DOCTYPE svg PUBLIC "-//W3C//DTD SVG 20010904//EN"
 "http://www.w3.org/TR/2001/REC-SVG-20010904/DTD/svg10.dtd">
<svg version="1.0" xmlns="http://www.w3.org/2000/svg"
 width="500.000000pt" height="500.000000pt" viewBox="0 0 500.000000 500.000000"
 preserveAspectRatio="xMidYMid meet">

<g transform="translate(0.000000,500.000000) scale(0.100000,-0.100000)"
fill="#000000" stroke="none">
<path d="M2660 3994 c-16 -37 -30 -68 -30 -71 0 -3 -114 -262 -140 -318 -5
-11 -77 -168 -159 -350 -82 -181 -172 -377 -199 -435 -27 -58 -73 -157 -102
-220 -93 -205 -260 -532 -336 -660 -210 -353 -422 -552 -635 -596 -115 -24
-225 0 -292 64 -83 78 -73 163 23 212 43 22 57 49 40 80 -20 38 -97 14 -125
-39 -55 -108 -5 -242 115 -302 60 -30 184 -59 253 -59 51 0 245 33 327 55 42
11 116 15 313 15 164 0 257 4 257 10 0 6 -8 10 -18 10 -40 0 -136 32 -167 56
-109 83 -44 289 167 530 92 106 184 178 304 238 116 57 194 77 340 83 l130 6
36 -32 c20 -17 45 -50 56 -74 12 -23 21 -35 22 -26 0 25 57 98 93 119 18 11
43 20 57 21 l25 1 -25 7 c-70 22 -119 62 -143 120 -14 34 -15 34 -22 10 -11
-36 -53 -87 -85 -104 -17 -9 -57 -15 -97 -15 -242 -1 -461 -93 -679 -287 -40
-35 -74 -63 -77 -63 -5 0 67 192 188 500 31 80 67 172 79 205 72 186 217 550
273 682 35 84 68 165 74 179 5 15 11 25 13 23 4 -4 185 -425 286 -664 21 -49
71 -164 110 -255 122 -278 131 -303 120 -314 -17 -17 -11 -34 11 -38 15 -2 27
-19 43 -58 13 -30 30 -71 39 -90 79 -169 218 -510 226 -554 20 -110 -32 -182
-146 -201 -115 -19 -12 -25 422 -25 430 0 536 6 426 25 -63 10 -160 74 -211
137 -58 73 -80 117 -189 373 -80 188 -226 527 -421 975 -37 85 -147 335 -245
555 -97 220 -199 449 -225 510 -27 60 -53 111 -59 113 -6 2 -24 -27 -41 -64z"/>
</g>
</svg>
